<svg width="17" height="20" viewBox="0 0 17 20" fill="none" xmlns="http://www.w3.org/2000/svg">
<path d="M0.95685 18.329V1.67002C0.956664 1.50675 1.00146 1.34644 1.08652 1.20594C1.17159 1.06544 1.29379 0.949939 1.44028 0.871569C1.58677 0.793199 1.75214 0.754855 1.91903 0.760566C2.08591 0.766277 2.24814 0.815833 2.38867 0.904026L15.7066 9.234C15.8384 9.31614 15.9469 9.42943 16.022 9.5634C16.0971 9.69737 16.1365 9.8477 16.1365 10.0005C16.1365 10.1533 16.0971 10.3036 16.022 10.4376C15.9469 10.5716 15.8384 10.6849 15.7066 10.767L2.38867 19.096C2.24807 19.1842 2.08574 19.2338 1.91877 19.2394C1.7518 19.2451 1.58635 19.2067 1.43983 19.1282C1.29331 19.0497 1.17112 18.9341 1.08613 18.7934C1.00114 18.6528 0.95648 18.4923 0.95685 18.329Z" fill="#FD695A"/>
<path d="M1.31581 18.3301V1.64007C1.31462 1.61976 1.31462 1.59939 1.31581 1.57907C1.31581 1.65407 1.31581 1.59107 1.31581 1.57007C1.32809 1.52807 1.33934 1.48607 1.35161 1.44607C1.32809 1.51607 1.34445 1.45807 1.35161 1.43907C1.35877 1.42007 1.39559 1.38207 1.41297 1.35407C1.43036 1.32607 1.4365 1.32407 1.4457 1.31207C1.40275 1.36807 1.43138 1.32807 1.44366 1.31207C1.47638 1.28407 1.50809 1.25307 1.54388 1.22307C1.48661 1.27207 1.52957 1.23207 1.549 1.22107L1.60832 1.18507L1.65945 1.16007C1.729 1.12207 1.60627 1.17407 1.67582 1.15307C1.71979 1.14107 1.76479 1.12707 1.80979 1.11707C1.76172 1.11007 1.89161 1.09607 1.80979 1.11707C1.83296 1.11824 1.85617 1.11824 1.87934 1.11707C1.89841 1.11591 1.91754 1.11591 1.93661 1.11707C1.93661 1.11707 2.02968 1.13307 1.97547 1.11707L2.01638 1.12907C2.04477 1.13633 2.07277 1.14501 2.10025 1.15507C2.11252 1.15507 2.16263 1.17407 2.10025 1.15507L2.18207 1.19707C2.19018 1.20164 2.19804 1.20665 2.20559 1.21207H2.21275L2.31502 1.27507L2.85195 1.61007L4.9465 2.92007C5.93173 3.53941 6.91559 4.15641 7.89809 4.77108C8.94059 5.42241 9.98412 6.07474 11.0287 6.72808L13.7235 8.41208C14.2581 8.74541 14.7933 9.07875 15.3292 9.41208C15.3824 9.44508 15.4315 9.47808 15.4847 9.51208L15.5205 9.53308L15.5737 9.56808C15.5184 9.52608 15.5737 9.56808 15.5829 9.58008C15.5921 9.59208 15.6309 9.62908 15.6545 9.65308C15.678 9.67708 15.6831 9.70508 15.6545 9.65308C15.6637 9.66908 15.6759 9.68308 15.6851 9.70008C15.6943 9.71708 15.7117 9.74908 15.7261 9.77508C15.7404 9.80108 15.7424 9.83408 15.7261 9.76808C15.7404 9.81308 15.7547 9.85508 15.767 9.90208C15.7712 9.91987 15.7743 9.93791 15.7762 9.95608C15.7618 9.86708 15.7762 9.95608 15.7762 9.97208C15.7762 9.98808 15.7639 10.1361 15.7762 10.0421C15.7696 10.0875 15.7594 10.1323 15.7455 10.1761C15.7405 10.1939 15.734 10.2113 15.7261 10.2281C15.7332 10.2141 15.7496 10.1551 15.7261 10.2281C15.7156 10.2492 15.7036 10.2696 15.6903 10.2891C15.6831 10.2981 15.6279 10.3731 15.678 10.3101C15.6457 10.3468 15.6116 10.3818 15.5757 10.4151C15.5225 10.4571 15.5665 10.4241 15.5757 10.4151C15.5563 10.4291 15.545 10.4361 15.5225 10.4501C15.5129 10.4572 15.5026 10.4636 15.4918 10.4691L14.2646 11.2331L11.7937 12.7851C10.7607 13.4298 9.72843 14.0751 8.69684 14.7211L5.65218 16.6261C4.85854 17.1228 4.06525 17.6188 3.27229 18.1141C2.91741 18.3371 2.56559 18.5621 2.20763 18.7801C2.16877 18.8031 2.13093 18.8251 2.09002 18.8461C2.10638 18.8391 2.15036 18.8161 2.09002 18.8461L2.01843 18.8671C1.99491 18.8741 1.97036 18.8761 1.94684 18.8831C2.01127 18.8641 1.98263 18.8831 1.95604 18.8831C1.90903 18.8854 1.86192 18.8854 1.81491 18.8831C1.74741 18.8831 1.81491 18.8831 1.82718 18.8831C1.80059 18.8831 1.77195 18.8741 1.74536 18.8671C1.71877 18.8601 1.61752 18.8221 1.65945 18.8391C1.70138 18.8561 1.59707 18.8061 1.57763 18.7941C1.5582 18.7821 1.53877 18.7661 1.51525 18.7571C1.46922 18.7361 1.57047 18.8111 1.51525 18.7571C1.4815 18.7241 1.44775 18.6941 1.41297 18.6571C1.46309 18.7111 1.40377 18.6411 1.38638 18.6171C1.369 18.5931 1.35979 18.5681 1.34547 18.5441C1.33116 18.5201 1.33116 18.4881 1.34547 18.5511C1.34036 18.5011 1.32297 18.4571 1.3107 18.4121C1.3107 18.3491 1.3107 18.3931 1.3107 18.4121C1.31446 18.3842 1.31446 18.356 1.3107 18.3281C1.30964 18.2351 1.27137 18.1461 1.20408 18.0803C1.1368 18.0145 1.04585 17.9771 0.950701 17.9761C0.856166 17.9789 0.766392 18.0173 0.700088 18.0832C0.633784 18.1492 0.596065 18.2376 0.594792 18.3301C0.59499 18.5553 0.656812 18.7763 0.773844 18.9703C0.890876 19.1642 1.05885 19.324 1.26035 19.4331C1.46185 19.5422 1.68952 19.5965 1.91976 19.5906C2.14999 19.5846 2.37439 19.5185 2.56968 19.3991C2.65866 19.3451 2.74661 19.2891 2.83354 19.2331L4.58343 18.1401L7.39491 16.3821C8.4565 15.7154 9.51912 15.0504 10.5828 14.3871L13.4883 12.5711C14.1401 12.1631 14.793 11.7544 15.4468 11.3451L15.8559 11.0901C15.9881 11.0097 16.1057 10.9083 16.2037 10.7901C16.3567 10.6026 16.4528 10.3767 16.4808 10.1383C16.5088 9.89996 16.4677 9.65869 16.3622 9.44208C16.2205 9.18888 16.0075 8.98067 15.7486 8.84208L15.1687 8.48208L12.978 7.11208L9.9548 5.21908C8.89662 4.55841 7.83809 3.89674 6.77923 3.23407L4.12525 1.57507L2.67502 0.667072C2.51944 0.559112 2.3429 0.483453 2.15628 0.444756C1.96966 0.406059 1.7769 0.405145 1.58991 0.442071C1.30144 0.512245 1.04589 0.676112 0.865101 0.906837C0.684316 1.13756 0.58901 1.42147 0.594792 1.71207V18.3351C0.595855 18.4281 0.634125 18.5171 0.701409 18.5828C0.768693 18.6486 0.859644 18.686 0.954792 18.6871C1.05009 18.6836 1.14045 18.6447 1.2075 18.5784C1.27456 18.5121 1.31328 18.4233 1.31581 18.3301Z" fill="#FD695A"/>
</svg>
