<svg width="40" height="41" viewBox="0 0 40 41" fill="none" xmlns="http://www.w3.org/2000/svg">
<g id="goal (1) 1" clip-path="url(#clip0_2_212)">
<path id="Vector" d="M37.0636 10.0042L39.0036 8.06445C39.3259 7.74188 39.4321 7.26154 39.2755 6.83337C39.119 6.40491 38.728 6.10645 38.2733 6.06799L34.6744 5.76434L34.3707 2.16541C34.3326 1.711 34.0338 1.32007 33.6057 1.16351C33.1775 1.00665 32.6971 1.11285 32.3746 1.43542L30.4346 3.37512C27.2974 1.4516 23.7103 0.438721 20 0.438721C14.6579 0.438721 9.63531 2.5191 5.85785 6.29657C2.08038 10.074 0 15.0966 0 20.4387C0 25.7808 2.08038 30.8034 5.85785 34.5809C9.63531 38.3583 14.6579 40.4387 20 40.4387C25.3421 40.4387 30.3647 38.3583 34.1422 34.5809C37.9196 30.8034 40 25.7808 40 20.4387C40 16.7284 38.9871 13.1417 37.0636 10.0042ZM32.4219 6.94751C32.4701 7.51697 32.9218 7.96863 33.4912 8.01685L35.5618 8.19141L32.7591 10.9941L29.7025 10.7363L29.4446 7.67963L32.2473 4.87689L32.4219 6.94751ZM23.9844 20.4387C23.9844 22.6357 22.197 24.4231 20 24.4231C17.803 24.4231 16.0156 22.6357 16.0156 20.4387C16.0156 18.2418 17.803 16.4543 20 16.4543C20.6729 16.4543 21.3068 16.6225 21.8631 16.9182L19.1714 19.6102C18.7137 20.0676 18.7137 20.8095 19.1714 21.2673C19.4 21.4962 19.7 21.6106 20 21.6106C20.3 21.6106 20.6 21.4962 20.8286 21.2673L23.5205 18.5756C23.8162 19.132 23.9844 19.7658 23.9844 20.4387ZM23.5666 15.2147C22.5504 14.5189 21.322 14.1106 20 14.1106C16.5106 14.1106 13.6719 16.9493 13.6719 20.4387C13.6719 23.9281 16.5106 26.7668 20 26.7668C23.4894 26.7668 26.3281 23.9281 26.3281 20.4387C26.3281 19.1167 25.9198 17.8884 25.224 16.8721L28.5699 13.5262C30.0986 15.4177 31.0156 17.8231 31.0156 20.4387C31.0156 26.5126 26.0739 31.4543 20 31.4543C13.9261 31.4543 8.98438 26.5126 8.98438 20.4387C8.98438 14.3648 13.9261 9.4231 20 9.4231C22.6157 9.4231 25.0211 10.3401 26.9125 11.8688L23.5666 15.2147ZM32.4847 32.9235C29.1501 36.2584 24.7162 38.095 20 38.095C15.2838 38.095 10.8499 36.2584 7.51526 32.9235C4.1803 29.5888 2.34375 25.1549 2.34375 20.4387C2.34375 15.7225 4.1803 11.2886 7.51526 7.95398C10.8499 4.61902 15.2838 2.78247 20 2.78247C23.0853 2.78247 26.0739 3.57501 28.7244 5.08533L27.4026 6.40704C27.189 6.62067 27.0673 6.90692 27.0596 7.20569C27.0587 7.24841 27.0599 7.29114 27.0633 7.33417L27.2211 9.20398C25.1376 7.85999 22.6584 7.07935 20 7.07935C12.6337 7.07935 6.64062 13.0724 6.64062 20.4387C6.64062 27.8051 12.6337 33.7981 20 33.7981C27.3663 33.7981 33.3594 27.8051 33.3594 20.4387C33.3594 17.7803 32.5787 15.3011 31.2347 13.2177L33.1046 13.3754C33.1375 13.3779 33.1705 13.3794 33.2031 13.3794C33.2086 13.3794 33.2144 13.3788 33.2199 13.3785C33.2355 13.3785 33.2507 13.3773 33.2663 13.3763C33.2916 13.3748 33.3173 13.3733 33.3423 13.3702C33.3578 13.3681 33.3734 13.3657 33.389 13.3632C33.4137 13.3593 33.4381 13.3547 33.4625 13.3492C33.4781 13.3455 33.4933 13.3416 33.5086 13.3376C33.5324 13.3312 33.5559 13.3239 33.5794 13.3159C33.5947 13.3107 33.6096 13.3055 33.6246 13.2997C33.6475 13.2909 33.67 13.2811 33.6926 13.2704C33.707 13.264 33.7213 13.2576 33.7357 13.2503C33.7582 13.2387 33.7802 13.2259 33.8019 13.2131C33.815 13.2051 33.8281 13.1978 33.8409 13.1899C33.8641 13.1746 33.8864 13.1581 33.9087 13.1414C33.9191 13.1334 33.9297 13.1264 33.9398 13.1182C33.9716 13.0925 34.0024 13.0654 34.0317 13.0361L35.3534 11.7144C36.8637 14.3648 37.6562 17.3534 37.6562 20.4387C37.6562 25.1549 35.8197 29.5888 32.4847 32.9235Z" fill="#34D27B"/>
</g>
<defs>
<clipPath id="clip0_2_212">
<rect width="40" height="40" fill="white" transform="translate(0 0.438721)"/>
</clipPath>
</defs>
</svg>
