<svg width="38" height="39" viewBox="0 0 38 39" fill="none" xmlns="http://www.w3.org/2000/svg">
<g id="diagram 1" clip-path="url(#clip0_2_267)">
<path id="Vector" d="M36.8864 38.9312H1.11327C0.498449 38.9312 0 38.4328 0 37.818C0 37.2032 0.498449 36.7047 1.11327 36.7047H36.8864C37.5013 36.7047 37.9997 37.2032 37.9997 37.818C37.9997 38.4328 37.5013 38.9312 36.8864 38.9312Z" fill="#7879F1"/>
<path id="Vector_2" d="M7.86693 38.9313H3.41384C2.79902 38.9313 2.30057 38.4329 2.30057 37.818V29.654C2.30057 28.6309 3.13292 27.7986 4.15602 27.7986H7.12475C8.14785 27.7986 8.9802 28.6309 8.9802 29.654V37.818C8.9802 38.4329 8.48175 38.9313 7.86693 38.9313ZM4.52711 36.7048H6.75366V30.0251H4.52711V36.7048ZM7.12475 30.0251H7.12549H7.12475Z" fill="#7879F1"/>
<path id="Vector_3" d="M16.7731 38.9313H12.32C11.7052 38.9313 11.2068 38.4328 11.2068 37.818V26.9822C11.2068 25.9591 12.0391 25.1267 13.0622 25.1267H16.0309C17.054 25.1267 17.8864 25.9591 17.8864 26.9822V37.818C17.8864 38.4328 17.3879 38.9313 16.7731 38.9313ZM13.4333 36.7047H15.6598V27.3533H13.4333V36.7047ZM16.0309 27.3533H16.0317H16.0309Z" fill="#7879F1"/>
<path id="Vector_4" d="M25.6793 38.9313H21.2262C20.6114 38.9313 20.1129 38.4328 20.1129 37.818V22.9001C20.1129 21.877 20.9453 21.0447 21.9684 21.0447H24.9371C25.9602 21.0447 26.7926 21.877 26.7926 22.9001V37.818C26.7926 38.4328 26.2941 38.9313 25.6793 38.9313ZM22.3395 36.7047H24.566V23.2712H22.3395V36.7047ZM24.9371 23.2712H24.9379H24.9371Z" fill="#7879F1"/>
<path id="Vector_5" d="M34.5855 38.9313H30.1324C29.5176 38.9313 29.0191 38.4329 29.0191 37.8181V15.4784C29.0191 14.4553 29.8515 13.6229 30.8746 13.6229H33.8433C34.8664 13.6229 35.6988 14.4553 35.6988 15.4784V37.8181C35.6988 38.4329 35.2003 38.9313 34.5855 38.9313ZM31.2457 36.7048H33.4722V15.8495H31.2457V36.7048ZM33.8433 15.8495H33.8441H33.8433Z" fill="#7879F1"/>
<path id="Vector_6" d="M1.11327 24.8527C0.498449 24.8527 0 24.3543 0 23.7395C0 23.1246 0.498449 22.6262 1.11327 22.6262C7.65976 22.6262 14.7875 20.2423 21.1834 15.9137C27.0675 11.9315 31.7562 6.711 34.0471 1.59076C34.2983 1.02953 34.9568 0.778075 35.518 1.0293C36.0792 1.28038 36.3306 1.93892 36.0795 2.50016C33.6239 7.98837 28.6493 13.5495 22.4314 17.7576C15.6709 22.333 8.09995 24.8527 1.11327 24.8527Z" fill="#7879F1"/>
<path id="Vector_7" d="M36.8855 9.96193C36.3939 9.96193 35.9441 9.63388 35.8109 9.13647L34.276 3.40824L28.5477 4.94315C27.9536 5.10242 27.3434 4.74988 27.1843 4.15599C27.0251 3.56209 27.3775 2.95165 27.9714 2.79253L34.775 0.969505C35.3691 0.810307 35.9794 1.16284 36.1385 1.75666L37.9615 8.56024C38.1206 9.15414 37.7682 9.76458 37.1743 9.9237C37.0778 9.94953 36.9809 9.96193 36.8855 9.96193Z" fill="#7879F1"/>
</g>
<defs>
<clipPath id="clip0_2_267">
<rect width="38" height="38" fill="white" transform="translate(0 0.931274)"/>
</clipPath>
</defs>
</svg>
