<svg width="42" height="42" viewBox="0 0 42 42" fill="none" xmlns="http://www.w3.org/2000/svg">
<path d="M40.9413 21.0181C40.9405 20.6124 40.7298 20.236 40.3844 20.0231L36.3192 17.5171L40.3887 14.9842C40.7319 14.7707 40.9407 14.3953 40.9413 13.9911C40.942 13.5869 40.7342 13.2109 40.3916 12.9963L21.5636 1.19946C21.183 0.961021 20.6997 0.961021 20.3191 1.19946L1.49109 12.9963C1.14859 13.2109 0.94086 13.5869 0.941407 13.9911C0.942032 14.3953 1.15086 14.7707 1.49406 14.9842L5.53561 17.4997L1.49226 20.027C1.1493 20.2413 0.941095 20.6173 0.941485 21.0218C0.941876 21.4263 1.15078 21.8019 1.49414 22.0156L5.53569 24.5311L1.49226 27.0582C1.14984 27.2722 0.94172 27.6475 0.941485 28.0513C0.941251 28.4551 1.14898 28.8306 1.49117 29.045L20.3192 40.8418C20.5095 40.961 20.7255 41.0206 20.9414 41.0206C21.1573 41.0206 21.3734 40.961 21.5636 40.8418L40.3916 29.045C40.7349 28.8299 40.9428 28.4527 40.9413 28.0476C40.9398 27.6426 40.7292 27.2669 40.3844 27.0544L36.3192 24.5484L40.3887 22.0155C40.7331 21.8012 40.9422 21.4238 40.9413 21.0181ZM4.32577 13.9862L20.9414 3.57554L37.557 13.9862C37.3974 14.0856 21.4176 24.0315 20.9414 24.3279L4.32577 13.9862ZM37.5494 28.0601L20.9414 38.4659L4.32249 28.0532L7.7513 25.9101L20.3222 33.7343C20.5117 33.8523 20.7266 33.9113 20.9414 33.9113C21.1563 33.9113 21.3711 33.8523 21.5606 33.7343L34.0968 25.9317L37.5494 28.0601ZM20.9414 31.3591L4.32772 21.0187L7.7513 18.8789L20.3222 26.7031C20.5117 26.8211 20.7266 26.8801 20.9414 26.8801C21.1563 26.8801 21.3711 26.8211 21.5606 26.7031L34.0968 18.9005L37.5441 21.0255C37.4488 21.0848 21.3813 31.0853 20.9414 31.3591Z" fill="#FD695A" stroke="#FD695A" stroke-width="0.5"/>
</svg>
