<svg width="36" height="32" viewBox="0 0 36 32" fill="none" xmlns="http://www.w3.org/2000/svg">
<path d="M10.2572 19.9027L10.2571 19.9026C10.0761 19.7483 9.97192 19.5228 9.97192 19.2848C9.97192 19.0468 10.0766 18.8215 10.2568 18.6675L10.2572 18.6672L13.8894 15.5744L13.8895 15.5743L14.0516 15.7646L10.2572 19.9027ZM10.2572 19.9027L13.8895 22.9956C13.8895 22.9956 13.8895 22.9956 13.8895 22.9956C14.0418 23.1253 14.2291 23.1893 14.4149 23.1893C14.6439 23.1893 14.8725 23.0925 15.0332 22.9037L15.0332 22.9037M10.2572 19.9027L15.0332 22.9037M15.0332 22.9037C15.3234 22.5628 15.2826 22.0508 14.9413 21.7601C14.9413 21.7601 14.9413 21.7601 14.9413 21.7601L12.0346 19.2848L14.9411 16.8096C14.9412 16.8096 14.9412 16.8096 14.9412 16.8096L15.0332 22.9037Z" fill="#53C8FF" stroke="#53C8FF" stroke-width="0.5"/>
<path d="M23.9655 19.2848L21.0588 21.7601L21.0587 21.7602C20.718 22.0507 20.6765 22.5625 20.9672 22.9037C20.9672 22.9037 20.9673 22.9038 20.9673 22.9039L21.1576 22.7417L23.9655 19.2848ZM23.9655 19.2848L24.1582 19.1206L21.2209 16.6192C20.985 16.4184 20.9565 16.0641 21.1576 15.8279C21.3584 15.5921 21.713 15.5635 21.9485 15.7646L22.1106 15.5743L22.1107 15.5744C22.1108 15.5744 22.1108 15.5745 22.1108 15.5745L25.7429 18.6672L25.743 18.6673C25.9239 18.8215 26.0282 19.047 26.0282 19.2848C26.0282 19.5228 25.924 19.7483 25.743 19.9026L25.7429 19.9027L22.1106 22.9956M23.9655 19.2848L21.0588 16.8095L21.2207 16.6193L21.0588 16.8095C20.7177 16.5191 20.6767 16.0071 20.9672 15.6659L21.1575 15.8278L20.9672 15.6658L22.1106 22.9956M22.1106 22.9956C22.1106 22.9956 22.1106 22.9956 22.1106 22.9956L22.1106 22.9956Z" fill="#53C8FF" stroke="#53C8FF" stroke-width="0.5"/>
<path d="M16.5459 25.4916L16.5466 25.4917C16.6018 25.5032 16.6577 25.5092 16.714 25.5092C17.0896 25.5092 17.4265 25.2473 17.5071 24.8651L17.5071 24.865L19.7709 14.1169L19.7709 14.1169C19.8632 13.6782 19.5825 13.2481 19.1443 13.1557L19.1442 13.1557C18.7056 13.0634 18.2755 13.3441 18.1831 13.7823L18.1831 13.7823L15.9193 24.5304C15.827 24.9688 16.1076 25.3992 16.5459 25.4916Z" fill="#53C8FF" stroke="#53C8FF" stroke-width="0.5"/>
<path d="M4.76887 31.3648H31.2311C33.4472 31.3648 35.25 29.5623 35.25 27.3459V4.88618C35.25 2.67009 33.4472 0.86731 31.2311 0.86731H4.76887C2.55278 0.86731 0.75 2.67009 0.75 4.88618V27.3459C0.75 29.5623 2.5528 31.3648 4.76887 31.3648ZM2.37264 4.88618C2.37264 3.56519 3.44788 2.48995 4.76887 2.48995H31.2311C32.5521 2.48995 33.6274 3.56519 33.6274 4.88618V27.3459C33.6274 28.6669 32.5521 29.7421 31.2311 29.7421H4.76887C3.44788 29.7421 2.37264 28.6669 2.37264 27.3459V4.88618Z" fill="#53C8FF" stroke="#53C8FF" stroke-width="0.5"/>
<path d="M1.56132 10.3557H34.4387C34.8869 10.3557 35.25 9.99253 35.25 9.54435C35.25 9.09658 34.8869 8.73303 34.4387 8.73303H1.56132C1.11305 8.73303 0.75 9.09658 0.75 9.54435C0.75 9.99253 1.11315 10.3557 1.56132 10.3557Z" fill="#53C8FF" stroke="#53C8FF" stroke-width="0.5"/>
<path d="M11.8769 7.41968C10.8977 7.41968 10.1005 6.62249 10.1005 5.64331C10.1005 4.66382 10.8977 3.86694 11.8769 3.86694C12.8564 3.86694 13.6533 4.66382 13.6533 5.64331C13.6533 6.62249 12.8564 7.41968 11.8769 7.41968ZM11.8769 4.98958C11.5167 4.98958 11.2232 5.28277 11.2232 5.64331C11.2232 6.00385 11.5167 6.29704 11.8769 6.29704C12.2374 6.29704 12.5306 6.00385 12.5306 5.64331C12.5306 5.28277 12.2374 4.98958 11.8769 4.98958Z" fill="#53C8FF"/>
<path d="M6.41913 7.40247C5.43964 7.40247 4.64276 6.60559 4.64276 5.6261C4.64276 4.64661 5.43964 3.84973 6.41913 3.84973C7.39862 3.84973 8.19549 4.64661 8.19549 5.6261C8.19549 6.60559 7.39862 7.40247 6.41913 7.40247ZM6.41913 4.97237C6.05891 4.97237 5.7654 5.26588 5.7654 5.6261C5.7654 5.98663 6.05891 6.27982 6.41913 6.27982C6.77966 6.27982 7.07285 5.98663 7.07285 5.6261C7.07285 5.26588 6.77966 4.97237 6.41913 4.97237Z" fill="#53C8FF"/>
<path d="M17.3351 7.4367C16.3559 7.4367 15.5591 6.63982 15.5591 5.66033C15.5591 4.68115 16.3559 3.88428 17.3351 3.88428C18.3146 3.88428 19.1115 4.68115 19.1115 5.66033C19.1115 6.63982 18.3146 7.4367 17.3351 7.4367ZM17.3351 5.00661C16.9749 5.00661 16.6817 5.2998 16.6817 5.66033C16.6817 6.02087 16.9749 6.31406 17.3351 6.31406C17.6956 6.31406 17.9888 6.02087 17.9888 5.66033C17.9888 5.2998 17.6956 5.00661 17.3351 5.00661Z" fill="#53C8FF"/>
</svg>
