<svg width="36" height="35" viewBox="0 0 36 35" fill="none" xmlns="http://www.w3.org/2000/svg">
<g opacity="0.8">
<path d="M16.4228 9.00942C16.6909 9.2776 16.8415 9.64129 16.8415 10.0205C16.8415 10.3997 16.6909 10.7634 16.4228 11.0316L11.7148 15.7409L26.6066 15.751C26.9859 15.751 27.3496 15.9016 27.6178 16.1698C27.886 16.438 28.0367 16.8018 28.0367 17.1811C28.0367 17.5604 27.886 17.9241 27.6178 18.1923C27.3496 18.4605 26.9859 18.6112 26.6066 18.6112L11.7134 18.6012L16.4228 23.3105C16.5594 23.4424 16.6683 23.6002 16.7433 23.7747C16.8182 23.9492 16.8577 24.1369 16.8593 24.3267C16.861 24.5166 16.8248 24.705 16.7529 24.8807C16.681 25.0565 16.5748 25.2161 16.4405 25.3504C16.3062 25.4847 16.1465 25.5909 15.9708 25.6628C15.795 25.7347 15.6067 25.7709 15.4168 25.7692C15.2269 25.7676 15.0393 25.7281 14.8648 25.6532C14.6903 25.5782 14.5325 25.4693 14.4006 25.3327L9.27222 20.2057C8.87375 19.8073 8.55766 19.3343 8.34201 18.8138C8.12635 18.2932 8.01536 17.7352 8.01536 17.1718C8.01536 16.6083 8.12635 16.0503 8.34201 15.5298C8.55766 15.0092 8.87375 14.5362 9.27222 14.1378L14.4006 9.00942C14.6688 8.74131 15.0325 8.5907 15.4117 8.5907C15.7909 8.5907 16.1546 8.74131 16.4228 9.00942Z" fill="#3D3D3F"/>
</g>
</svg>
