<svg width="189" height="40" fill="none" xmlns="http://www.w3.org/2000/svg"><path d="M46.264 31a.74.74 0 0 1-.544-.224.74.74 0 0 1-.224-.544V9.4c0-.235.064-.427.192-.576a.78.78 0 0 1 .576-.224h8.576c2.56 0 4.576.608 6.048 1.824 1.472 1.195 2.208 2.955 2.208 5.28s-.736 4.085-2.208 5.28c-1.45 1.173-3.467 1.76-6.048 1.76h-4.768v7.488a.74.74 0 0 1-.224.544c-.128.15-.31.224-.544.224h-3.04Zm8.416-11.808c1.237 0 2.187-.288 2.848-.864.661-.597.992-1.472.992-2.624 0-1.11-.32-1.973-.96-2.592-.64-.64-1.6-.96-2.88-.96h-4.672v7.04h4.672ZM67.474 31a.74.74 0 0 1-.544-.224.74.74 0 0 1-.224-.544V15.16a.74.74 0 0 1 .224-.544c.15-.17.33-.256.544-.256h2.592a.78.78 0 0 1 .576.224.78.78 0 0 1 .224.576v1.312a5.075 5.075 0 0 1 1.92-1.568c.79-.363 1.685-.544 2.688-.544h1.312c.234 0 .416.075.544.224.15.128.224.31.224.544v2.304a.74.74 0 0 1-.224.544c-.128.15-.31.224-.544.224H74.29c-1.003 0-1.792.288-2.368.864-.576.576-.864 1.365-.864 2.368v8.8a.74.74 0 0 1-.224.544.78.78 0 0 1-.576.224h-2.784Zm20.217.32c-2.496 0-4.427-.64-5.792-1.92-1.365-1.301-2.102-3.072-2.208-5.312l-.032-1.408.032-1.408c.106-2.219.853-3.979 2.24-5.28 1.386-1.301 3.306-1.952 5.76-1.952 2.453 0 4.373.65 5.76 1.952 1.387 1.301 2.133 3.061 2.24 5.28.021.256.032.725.032 1.408 0 .683-.01 1.152-.032 1.408-.107 2.24-.843 4.01-2.208 5.312-1.365 1.28-3.296 1.92-5.792 1.92Zm0-3.168c1.13 0 2.005-.352 2.624-1.056.618-.725.96-1.781 1.024-3.168.021-.213.032-.63.032-1.248 0-.619-.01-1.035-.032-1.248-.064-1.387-.406-2.432-1.024-3.136-.619-.725-1.493-1.088-2.624-1.088-1.13 0-2.005.363-2.624 1.088-.619.704-.96 1.75-1.024 3.136l-.032 1.248.032 1.248c.064 1.387.405 2.443 1.024 3.168.619.704 1.493 1.056 2.624 1.056ZM98.564 31a.764.764 0 0 1-.512-.192.764.764 0 0 1-.192-.512c0-.192.075-.373.224-.544l5.44-7.296-5.056-6.848a.891.891 0 0 1-.192-.544c0-.192.064-.352.192-.48.15-.15.32-.224.512-.224h2.784c.214 0 .374.053.48.16.128.085.256.213.384.384l3.616 4.8 3.616-4.8c.022-.021.107-.117.256-.288.128-.17.331-.256.608-.256h2.656c.192 0 .352.075.48.224.15.128.224.277.224.448a.936.936 0 0 1-.192.576l-5.12 6.912 5.472 7.232c.15.17.224.352.224.544a.702.702 0 0 1-.224.512.651.651 0 0 1-.48.192h-2.912c-.341 0-.629-.17-.864-.512l-3.84-5.088-3.904 5.088c-.234.341-.522.512-.864.512h-2.816Zm22.275 6.08a.613.613 0 0 1-.448-.192.614.614 0 0 1-.192-.448c0-.192.042-.363.128-.512l2.496-5.92-6.144-14.496c-.086-.192-.128-.341-.128-.448a.777.777 0 0 1 .224-.48.606.606 0 0 1 .48-.224h2.592c.405 0 .693.203.864.608l4.256 10.464 4.384-10.464c.17-.405.458-.608.864-.608h2.56c.17 0 .32.064.448.192a.577.577 0 0 1 .224.448c0 .15-.043.32-.128.512l-9.056 20.96c-.192.405-.491.608-.896.608h-2.528ZM137.506 31a.74.74 0 0 1-.544-.224.738.738 0 0 1-.224-.544V9.048c0-.235.074-.416.224-.544a.74.74 0 0 1 .544-.224h2.656c.234 0 .416.075.544.224.149.128.224.31.224.544v21.184a.742.742 0 0 1-.224.544c-.128.15-.31.224-.544.224h-2.656Zm13.001.32c-1.088 0-2.091-.213-3.008-.64-.896-.448-1.611-1.045-2.144-1.792a4.264 4.264 0 0 1-.768-2.464c0-1.45.586-2.624 1.76-3.52 1.173-.896 2.784-1.504 4.832-1.824l4.384-.64v-.672c0-.939-.235-1.643-.704-2.112-.47-.47-1.227-.704-2.272-.704-.704 0-1.28.139-1.728.416a5.308 5.308 0 0 0-1.024.768 24.57 24.57 0 0 1-.512.544c-.086.256-.246.384-.48.384h-2.464a.764.764 0 0 1-.512-.192.692.692 0 0 1-.192-.512c.021-.533.277-1.141.768-1.824.512-.683 1.29-1.27 2.336-1.76 1.045-.49 2.325-.736 3.84-.736 2.517 0 4.352.565 5.504 1.696 1.152 1.13 1.728 2.613 1.728 4.448v10.048a.742.742 0 0 1-.224.544c-.128.15-.31.224-.544.224h-2.592a.74.74 0 0 1-.544-.224.738.738 0 0 1-.224-.544v-1.248c-.47.683-1.142 1.248-2.016 1.696-.854.427-1.92.64-3.2.64Zm1.088-3.04c1.173 0 2.133-.384 2.88-1.152.746-.768 1.12-1.888 1.12-3.36v-.672l-3.2.512c-1.238.192-2.176.501-2.816.928-.619.427-.928.95-.928 1.568 0 .683.288 1.216.864 1.6.576.384 1.269.576 2.08.576Zm22.077 3.04c-2.198 0-3.904-.757-5.12-2.272v1.184a.742.742 0 0 1-.224.544c-.128.15-.31.224-.544.224h-2.528a.74.74 0 0 1-.544-.224.738.738 0 0 1-.224-.544V9.048c0-.235.074-.416.224-.544a.74.74 0 0 1 .544-.224h2.72c.234 0 .416.075.544.224.149.128.224.31.224.544v7.104c1.216-1.408 2.858-2.112 4.928-2.112 2.154 0 3.808.704 4.96 2.112 1.152 1.408 1.77 3.232 1.856 5.472.021.256.032.597.032 1.024 0 .448-.011.8-.032 1.056-.086 2.304-.704 4.15-1.856 5.536-1.152 1.387-2.806 2.08-4.96 2.08Zm-1.184-3.424c2.304 0 3.53-1.419 3.68-4.256.021-.213.032-.533.032-.96 0-.427-.011-.747-.032-.96-.15-2.837-1.376-4.256-3.68-4.256-1.195 0-2.112.384-2.752 1.152-.619.747-.95 1.653-.992 2.72l-.032 1.216.032 1.248c.064 1.152.394 2.123.992 2.912.597.79 1.514 1.184 2.752 1.184Z" fill="#3D3D3F"/><path d="M31.567 3.69h-4.349c-1.341 0-2.43 1.058-2.43 2.365v4.234c0 1.306 1.088 2.365 2.43 2.365h4.349c1.341 0 2.43-1.059 2.43-2.365V6.055c0-1.307-1.089-2.366-2.43-2.366Z" fill="#FD695A"/><path d="M14.538 12.906h3.819a7.102 7.102 0 0 1 4.264 1.72l.143.155a6.647 6.647 0 0 1 1.766 4.151v3.703a2.4 2.4 0 0 0 .731 1.72 2.533 2.533 0 0 0 1.767.712h4.47c.663 0 1.298-.256 1.766-.713a2.4 2.4 0 0 0 .732-1.72v-4.352a2.4 2.4 0 0 0-.732-1.72 2.532 2.532 0 0 0-1.766-.712h-3.802a7.02 7.02 0 0 1-4.264-1.72l-.16-.14a6.693 6.693 0 0 1-1.765-4.15V6.121a2.4 2.4 0 0 0-.732-1.72 2.533 2.533 0 0 0-1.766-.713h-4.47c-.663 0-1.299.257-1.767.713a2.4 2.4 0 0 0-.732 1.72v4.353a2.4 2.4 0 0 0 .732 1.72 2.532 2.532 0 0 0 1.766.711Z" fill="#FD695A"/><path d="M32.214 28.147h-3.782a6.878 6.878 0 0 1-4.224-1.8l-.426-.423a6.79 6.79 0 0 1-1.749-4.197V17.97a2.466 2.466 0 0 0-.73-1.734 2.498 2.498 0 0 0-1.744-.724h-3.783a6.833 6.833 0 0 1-4.224-1.691l-.425-.423a6.788 6.788 0 0 1-1.75-4.196V5.458a2.45 2.45 0 0 0-.724-1.738A2.483 2.483 0 0 0 6.903 3H2.474c-.656 0-1.285.259-1.75.72A2.45 2.45 0 0 0 0 5.458v4.4c0 .652.26 1.278.725 1.739.464.46 1.093.72 1.75.72H6.24a6.88 6.88 0 0 1 4.287 1.753l.425.423a6.836 6.836 0 0 1 1.75 4.196v3.759c.004.65.266 1.273.73 1.733.462.46 1.09.72 1.744.725h3.783c1.549.096 3.02.709 4.176 1.738l.426.423a6.836 6.836 0 0 1 1.75 4.196v3.758c.003.65.265 1.274.729 1.734.463.46 1.09.72 1.744.724h4.445a2.498 2.498 0 0 0 1.745-.724c.463-.46.725-1.083.73-1.734v-4.416a2.467 2.467 0 0 0-.736-1.739 2.498 2.498 0 0 0-1.755-.719ZM7.3 27.825H2.615C1.171 27.825 0 28.885 0 30.191v4.233c0 1.307 1.171 2.366 2.616 2.366H7.3c1.445 0 2.617-1.06 2.617-2.366v-4.233c0-1.307-1.172-2.366-2.617-2.366Z" fill="#FD695A"/><path d="M19.458 27.573h-3.803a7.02 7.02 0 0 1-4.263-1.72l-.16-.139a6.692 6.692 0 0 1-1.766-4.182v-3.718a2.4 2.4 0 0 0-.714-1.673 2.53 2.53 0 0 0-1.704-.728h-4.55c-.663 0-1.298.256-1.766.712A2.4 2.4 0 0 0 0 17.845v4.353a2.4 2.4 0 0 0 .732 1.72 2.532 2.532 0 0 0 1.766.712h3.818a7.101 7.101 0 0 1 4.264 1.72l.143.154a6.647 6.647 0 0 1 1.766 4.152v3.702c0 .32.066.638.192.934.127.296.312.565.546.791.233.226.51.405.815.526.305.122.632.183.961.181h4.455c.662 0 1.298-.256 1.766-.712a2.4 2.4 0 0 0 .732-1.72v-4.353a2.4 2.4 0 0 0-.732-1.72 2.532 2.532 0 0 0-1.766-.712Z" fill="#FD695A"/></svg>